<?xml version="1.0" encoding="utf-8"?>
<!-- Generator: Adobe Illustrator 25.2.3, SVG Export Plug-In . SVG Version: 6.00 Build 0)  -->
<svg version="1.1" id="Layer_1" xmlns="http://www.w3.org/2000/svg" xmlns:xlink="http://www.w3.org/1999/xlink" x="0px" y="0px"
	 viewBox="0 0 800 160" style="enable-background:new 0 0 800 160;" xml:space="preserve">
<style type="text/css">
	.st0{fill:#D30088;}
	.st1{fill:url(#SVGID_1_);}
	.st2{fill:url(#SVGID_2_);}
	.st3{fill:#FFFFFF;}
</style>
<g>
	<g>
		<g>
			<g>
				<path class="st0" d="M750.3,124.7c13.8,0,27.4,0.1,40.9-0.1c2.4,0,3.2,0.5,3.1,3.1c-0.2,5.2-0.1,10.4,0,15.7
					c0,1.4-0.2,2.2-1.9,2.2c-27.6-0.1-55.2-0.1-82.8-0.1c-0.1,0-0.2-0.1-0.5-0.2c1.1-2.5,3-4.4,4.6-6.5
					c12.5-17.1,25.6-33.7,37.1-51.6c6.3-9.7,12.1-19.8,14.5-31.3c1-4.7,0.9-9.5-0.7-14.1c-2.5-7.5-8-11.5-15.7-12.4
					c-11.5-1.3-20,3.2-25.5,13.3c-0.8,1.4-1.5,1.5-2.9,0.9c-5.1-2.1-10.2-4.3-15.3-6.2c-1.8-0.7-1.7-1.5-1-2.9
					c7.3-14.8,19.1-23.6,35.6-25.8c11.3-1.5,21.8,0.8,31.1,7.5c9.5,7,14.2,16.7,15.6,28.3c1.7,13.9-3.2,26.2-9.2,38.2
					c-7,13.9-15.9,26.5-25.3,38.9C751.3,122.7,750.5,123.4,750.3,124.7z"/>
				<path class="st0" d="M636.5,115.1c-9.9,0-19.8-0.1-29.8,0c-2.5,0-2.8-0.5-1.8-2.8c14.6-34.3,29.2-68.6,43.7-102.9
					c0.9-2,1.6-2.2,3.4-1.4c4.9,2.2,9.8,4.2,14.7,6.2c1.7,0.7,2.2,1.2,1.4,3.2c-10.8,25.1-21.4,50.2-32.1,75.4c-1.7,4-1.8,4,2.6,4
					c9.1,0,18.2-0.1,27.2,0.1c2.4,0,3.2-0.5,3.2-3c-0.2-9,0-18.1-0.1-27.1c0-2.2,0.4-3.1,2.9-3c5.1,0.2,10.3,0.2,15.4,0
					c2.3-0.1,3,0.5,3,2.9c-0.1,9,0,17.9-0.1,26.9c0,2.6,0.5,3.7,3.3,3.4c3-0.3,6,0,9-0.1c1.5,0,2,0.5,2,1.9c-0.1,4.8-0.1,9.5,0,14.3
					c0,1.6-0.6,2.1-2.1,2.1c-3.1-0.1-6.2,0.1-9.3-0.1c-2.2-0.1-2.9,0.5-2.9,2.8c0.1,8.7,0,17.4,0.1,26c0,2.1-0.5,2.9-2.8,2.9
					c-5.3-0.2-10.7-0.1-16,0c-2,0-2.5-0.6-2.5-2.5c0.1-8.8,0-17.5,0.1-26.3c0-2.2-0.6-2.8-2.8-2.8
					C656.4,115.2,646.4,115.1,636.5,115.1z"/>
			</g>
			<g>
				<linearGradient id="SVGID_1_" gradientUnits="userSpaceOnUse" x1="604.4327" y1="77.193" x2="794.3109" y2="77.193">
					<stop  offset="0" style="stop-color:#F37033"/>
					<stop  offset="0.2041" style="stop-color:#F57D2D"/>
					<stop  offset="0.5852" style="stop-color:#F9A11C"/>
					<stop  offset="1" style="stop-color:#FFCE07"/>
				</linearGradient>
				<path class="st1" d="M750.3,124.7c13.8,0,27.4,0.1,40.9-0.1c2.4,0,3.2,0.5,3.1,3.1c-0.2,5.2-0.1,10.4,0,15.7
					c0,1.4-0.2,2.2-1.9,2.2c-27.6-0.1-55.2-0.1-82.8-0.1c-0.1,0-0.2-0.1-0.5-0.2c1.1-2.5,3-4.4,4.6-6.5
					c12.5-17.1,25.6-33.7,37.1-51.6c6.3-9.7,12.1-19.8,14.5-31.3c1-4.7,0.9-9.5-0.7-14.1c-2.5-7.5-8-11.5-15.7-12.4
					c-11.5-1.3-20,3.2-25.5,13.3c-0.8,1.4-1.5,1.5-2.9,0.9c-5.1-2.1-10.2-4.3-15.3-6.2c-1.8-0.7-1.7-1.5-1-2.9
					c7.3-14.8,19.1-23.6,35.6-25.8c11.3-1.5,21.8,0.8,31.1,7.5c9.5,7,14.2,16.7,15.6,28.3c1.7,13.9-3.2,26.2-9.2,38.2
					c-7,13.9-15.9,26.5-25.3,38.9C751.3,122.7,750.5,123.4,750.3,124.7z"/>
				<linearGradient id="SVGID_2_" gradientUnits="userSpaceOnUse" x1="604.4327" y1="77.193" x2="794.3109" y2="77.193">
					<stop  offset="0" style="stop-color:#F37033"/>
					<stop  offset="0.2041" style="stop-color:#F57D2D"/>
					<stop  offset="0.5852" style="stop-color:#F9A11C"/>
					<stop  offset="1" style="stop-color:#FFCE07"/>
				</linearGradient>
				<path class="st2" d="M636.5,115.1c-9.9,0-19.8-0.1-29.8,0c-2.5,0-2.8-0.5-1.8-2.8c14.6-34.3,29.2-68.6,43.7-102.9
					c0.9-2,1.6-2.2,3.4-1.4c4.9,2.2,9.8,4.2,14.7,6.2c1.7,0.7,2.2,1.2,1.4,3.2c-10.8,25.1-21.4,50.2-32.1,75.4c-1.7,4-1.8,4,2.6,4
					c9.1,0,18.2-0.1,27.2,0.1c2.4,0,3.2-0.5,3.2-3c-0.2-9,0-18.1-0.1-27.1c0-2.2,0.4-3.1,2.9-3c5.1,0.2,10.3,0.2,15.4,0
					c2.3-0.1,3,0.5,3,2.9c-0.1,9,0,17.9-0.1,26.9c0,2.6,0.5,3.7,3.3,3.4c3-0.3,6,0,9-0.1c1.5,0,2,0.5,2,1.9c-0.1,4.8-0.1,9.5,0,14.3
					c0,1.6-0.6,2.1-2.1,2.1c-3.1-0.1-6.2,0.1-9.3-0.1c-2.2-0.1-2.9,0.5-2.9,2.8c0.1,8.7,0,17.4,0.1,26c0,2.1-0.5,2.9-2.8,2.9
					c-5.3-0.2-10.7-0.1-16,0c-2,0-2.5-0.6-2.5-2.5c0.1-8.8,0-17.5,0.1-26.3c0-2.2-0.6-2.8-2.8-2.8
					C656.4,115.2,646.4,115.1,636.5,115.1z"/>
			</g>
		</g>
		<path class="st3" d="M285.1,152.4c-20.2-46.8-40.3-93.2-60.6-140c7.4,0,14.4,0,21.4,0c1.7,0,1.9,1.2,2.3,2.3
			c6.9,16.7,13.9,33.3,20.8,50c4.8,11.6,9.7,23.2,14.5,34.8c0.2,0.4,0.4,0.8,0.8,1.8c1.8-4.5,3.4-8.6,4.9-12.7
			C299,64,308.5,39.4,318,14.9c0.7-1.8,1.5-2.6,3.6-2.5c6.5,0.2,13,0.1,20,0.1C322.7,59.2,304,105.6,285.1,152.4z"/>
		<path class="st3" d="M406.8,82c0.1-14.9,1.5-28.9,8.2-41.9c8.9-17.3,23.3-26.9,42.3-29.3c14.6-1.9,28.7,0.3,42.1,6.4
			c1.9,0.9,2.2,1.5,1.2,3.4c-2.6,4.7-5,9.6-7.3,14.5c-0.8,1.6-1.4,1.9-3.1,1.1c-9.6-4.6-19.9-5.9-30.3-4.6
			c-14.7,1.8-24.5,10.3-28.7,24.4c-5,16.6-4.7,33.3,0.9,49.8c4.3,12.7,14.2,19.6,27.7,20.3c11.1,0.5,21.8-1.8,32.4-4.2
			c2.6-0.6,3.5-0.3,4,2.4c0.9,5.2,2.3,10.3,3.6,15.5c0.3,1.1,0.4,1.9-1.1,2.2c-13.5,3-27,6-41,4.9c-23.4-1.9-39.6-14.9-46.6-37.3
			c-1.4-4.6-2.5-9.2-3.1-13.9C407.4,90.8,407.1,86.1,406.8,82z"/>
		<path class="st3" d="M360.7,77.8c0-20.9,0-41.8,0-62.7c0-2.2,0.5-2.9,2.8-2.8c5.2,0.2,10.5,0.1,15.7,0c1.7,0,2.4,0.3,2.4,2.3
			c-0.1,42.2-0.1,84.3,0,126.5c0,1.8-0.5,2.4-2.3,2.3c-5.3-0.1-10.7-0.2-16,0c-2.2,0.1-2.5-0.7-2.5-2.7
			C360.7,119.8,360.7,98.8,360.7,77.8z"/>
		<path class="st3" d="M619.7,12.7c-2.8,6.5-5.5,12.9-8.1,19.2c-0.7,1.6-1.9,1.2-3,1.2c-16.5,0-32.9,0-49.4,0c-12,0-24-0.1-35.9,0.1
			c-2.1,0-2.7-0.5-2.6-2.6c0.2-5.4,0.1-10.8,0-16.2c0-1.4,0.3-2,1.8-2c32.2,0.1,64.4,0.1,96.6,0.1C619.2,12.5,619.3,12.5,619.7,12.7
			z"/>
		<path class="st3" d="M167.2,86.2c-13,0-26,0-39,0c-2.1,0-2.9-0.3-2.8-2.7c0.2-5.3,0.1-10.6,0-15.9c0-1.7,0.5-2.2,2.2-2.2
			c26.4,0.1,52.7,0.1,79.1,0c1.8,0,2.1,0.7,2.1,2.3c-0.1,5.4-0.1,10.8,0,16.2c0,1.8-0.5,2.3-2.3,2.3
			C193.4,86.1,180.3,86.2,167.2,86.2z"/>
		<path class="st3" d="M166.9,143.4c-13,0-26,0-39,0c-1.9,0-2.6-0.4-2.5-2.5c0.1-5.4,0.1-10.8,0-16.2c0-1.5,0.4-2.1,2-2.1
			c26.5,0,52.9,0,79.4,0c1.5,0,2,0.4,2,1.9c-0.1,5.7-0.1,11.4,0,17.1c0,2.2-1.4,1.8-2.6,1.8C193.1,143.4,180,143.4,166.9,143.4z"/>
		<path class="st3" d="M167.2,33.1c-13.1,0-26.2,0-39.3,0c-1.9,0-2.6-0.4-2.6-2.4c0.1-5.3,0.1-10.6,0-15.9c0-1.7,0.4-2.3,2.2-2.3
			c26.4,0,52.7,0,79.1,0c1.5,0,2.2,0.4,2.1,2c-0.1,5.5-0.2,11,0,16.5c0.1,2.3-1.2,2.1-2.6,2.1C193.2,33.1,180.2,33.1,167.2,33.1z"/>
		<path class="st3" d="M597.3,65.5c-2.9,6.8-5.5,13.1-8.2,19.4c-0.4,1-1,1.3-2.1,1.3c-21.5,0-43,0-64.5,0c-1.5,0-1.9-0.5-1.8-1.9
			c0.1-5.7,0.1-11.4,0-17c0-1.2,0.2-1.8,1.6-1.8C547.2,65.5,572.1,65.5,597.3,65.5z"/>
		<path class="st3" d="M573.1,122.7c-2.9,6.8-5.6,13.2-8.3,19.6c-0.5,1.1-1.3,1.1-2.2,1.1c-13.4,0-26.7,0-40.1,0
			c-1.2,0-1.8-0.2-1.8-1.6c0.1-5.8,0.1-11.5,0-17.3c0-1.6,0.7-1.8,2-1.8C539.3,122.7,556,122.7,573.1,122.7z"/>
		<path class="st3" d="M104.7,57.1c-2.2-11.6-7-22-15.6-30.3C77.9,16.1,64,12.2,49,11.2c-13.4-0.9-26.9-0.1-40.4-0.4
			c-2.3,0-2.9,0.5-2.9,2.9c0.1,21.4,0.1,42.7,0.1,64.1c0,21.5,0,43.1,0,64.6c0,2,0.4,2.7,2.6,2.6c10.5-0.1,21-0.1,31.4,0
			c6.9,0.1,13.8,0,20.7-1.2c21.7-3.6,36.4-15.5,42.6-36.9C107.8,90.5,107.9,73.9,104.7,57.1z M83.2,99.9
			c-3.4,13.5-12.3,21.1-26,23.2c-9.2,1.4-18.5,1-27.7,1c-2.2,0-2.9-0.7-2.9-3.1c0.1-14.5,0.1-28.9,0.1-43.4c0.1,0,0.1,0,0.2,0
			c0-14.5,0-28.9,0-43.4c0-1-0.7-2.6,1.5-2.5c10.1,0.1,20.2-0.4,30.2,1.9c13.8,3.2,22.1,12,25.2,25.5C86.8,72.7,86.6,86.4,83.2,99.9
			z"/>
	</g>
</g>
</svg>
