<?xml version="1.0" encoding="utf-8"?>
<!-- Generator: Adobe Illustrator 27.5.0, SVG Export Plug-In . SVG Version: 6.00 Build 0)  -->
<svg version="1.1" id="Layer_1" xmlns="http://www.w3.org/2000/svg" xmlns:xlink="http://www.w3.org/1999/xlink" x="0px" y="0px"
	 viewBox="0 0 24 24" style="enable-background:new 0 0 24 24;" xml:space="preserve">
<style type="text/css">
	.st0{fill:#1E0068;}
</style>
<path class="st0" d="M18,13c-1.1-1.1-2.8-1.3-4.1-0.6L9,7.6V4.5c0-1-0.5-2-1.4-2.5l-3-1.7C3.7-0.2,2.5-0.1,1.7,0.7l-1,1
	c-0.8,0.8-0.9,1.9-0.4,2.9l1.7,3l0,0C2.6,8.5,3.5,9,4.5,9h3.1l4.8,4.8c-0.3,0.5-0.4,1.1-0.4,1.7c0,0.9,0.4,1.8,1,2.5l5,5
	c0.7,0.7,1.6,1,2.5,1c1,0,2.1-0.5,2.7-1.3c1.1-1.4,1-3.5-0.3-4.8L18,13L18,13z M3.8,6.6l-1.7-3C2,3.4,2,3.3,2.1,3.1l1-1
	C3.3,2,3.5,2,3.6,2.1l3,1.7C6.8,3.9,7,4.2,7,4.5V7H4.5C4.2,7,3.9,6.8,3.8,6.6z M21.7,21.4C21.4,21.8,21,22,20.6,22
	c-0.4,0-0.8-0.1-1.1-0.4l-5-5c-0.3-0.3-0.4-0.7-0.4-1.1s0.2-0.8,0.4-1.1c0.3-0.3,0.7-0.4,1.1-0.4s0.8,0.1,1.1,0.4l4.9,4.9
	C22.1,19.9,22.2,20.9,21.7,21.4L21.7,21.4z M10.4,17.1c0.4,0.4,0.4,1,0,1.4L6,23c-0.7,0.7-1.6,1-2.5,1c-0.9,0-2.1-0.5-2.7-1.3
	c-1.1-1.4-1-3.5,0.3-4.8l5.7-5.7c0.4-0.4,1-0.4,1.4,0c0.4,0.4,0.4,1,0,1.4l-5.7,5.7c-0.6,0.6-0.7,1.5-0.2,2.1C2.6,21.8,3,22,3.4,22
	c0.4,0,0.8-0.1,1.1-0.4L9,17.1C9.4,16.7,10,16.7,10.4,17.1L10.4,17.1z M9.9,4.6c0.9-2.3,3-4.1,5.5-4.5C16.2,0,17.1,0,18,0.1
	c0.7,0.1,1.2,0.6,1.4,1.2c0.2,0.7,0,1.5-0.6,2.1l-2.3,2.2c-0.5,0.5-0.6,1.3-0.2,1.7c0.2,0.3,0.6,0.4,0.9,0.5c0.3,0,0.7-0.1,0.9-0.4
	L20.7,5c0.5-0.5,1.2-0.7,1.9-0.4c0.7,0.2,1.2,0.8,1.3,1.4c0.1,0.8,0.1,1.7,0,2.6c-0.3,1.6-1.1,3-2.3,4.1c-0.2,0.2-0.4,0.3-0.7,0.3
	c-0.3,0-0.5-0.1-0.7-0.3c-0.4-0.4-0.3-1,0.1-1.4c0.9-0.8,1.5-1.9,1.7-3C22,7.7,22,7.2,22,6.6L19.5,9c-0.6,0.6-1.5,1-2.4,0.9
	c-0.9,0-1.8-0.5-2.4-1.2c-1-1.3-0.9-3.2,0.3-4.4l2.3-2.2l0,0c-0.5-0.1-1.1-0.1-1.6,0c-1.8,0.3-3.3,1.6-4,3.3
	c-0.2,0.5-0.8,0.8-1.3,0.6S9.7,5.2,9.9,4.6L9.9,4.6z"/>
</svg>
