<svg width="256" height="289" viewBox="0 0 256 289" fill="none" xmlns="http://www.w3.org/2000/svg">
<path d="M255.9 144.7C255.9 186.8 255.9 228.9 255.9 271C255.9 280.2 251.2 286.6 243.1 288.4C241.5 288.7 239.9 288.8 238.3 288.8C164.8 288.8 91.4 288.8 17.9 288.8C6.90002 288.8 0.299988 282.3 0.299988 271.4C0.299988 187.1 0.299988 102.7 0.299988 18.4C0.299988 7.29998 6.89998 0.799988 18.1 0.799988C91.4 0.799988 164.8 0.799988 238.1 0.799988C249.4 0.799988 255.9 7.29997 255.9 18.8C255.9 60.7 255.9 102.7 255.9 144.7ZM239.8 144.7C239.8 103.5 239.8 62.2 239.9 21C239.9 17.5 238.9 16.7 235.5 16.7C163.9 16.8 92.3 16.8 20.7 16.7C17.3 16.7 16.3 17.5 16.3 21C16.4 103.5 16.4 186 16.3 268.5C16.3 272.2 17.3 273 20.9 273C92.4 272.9 163.9 272.9 235.4 273C238.9 273 240 272.2 240 268.5C239.8 227.2 239.8 185.9 239.8 144.7Z" fill="black"/>
<path d="M128.2 160.7C100.1 160.7 75.6 139.3 72.8 112.2C69.6 82.1 88.2 56 116.8 49.9C119.6 49.3 120.3 49.9 120.2 52.6C120 55.8 120 59.1 120.2 62.3C120.4 64.8 119.4 65.6 117.1 66.3C100.9 71.6 90.8 82.7 88.8 99.6C86.7 116.7 93.5 130.3 108.3 139.1C130.2 152.3 158.9 140.9 166.3 116.2C167.2 113.2 168.3 112.1 171.4 112.4C174.1 112.7 176.9 112.7 179.6 112.4C183.4 112 183.6 113.5 182.9 116.6C177.4 142.1 154.3 160.7 128.2 160.7Z" fill="black"/>
<path d="M168 96.7C158.4 96.7 148.8 96.6 139.2 96.7C137 96.7 136.2 96.1999 136.2 93.7999C136.3 74.4 136.2 55.1 136.3 35.7C136.3 34.2 136 32.8 138.4 32.7C170.5 30.5 191.8 51.2 198 73.4C199.9 80.4 200.2 87.4 200.2 94.6C200.2 97 198.8 96.7999 197.3 96.7999C187.4 96.6999 177.7 96.7 168 96.7ZM152.1 65.1C152.1 69.5 152.2 73.8 152.1 78.2C152.1 80.1 152.6 80.8999 154.6 80.7999C163.2 80.6999 171.8 80.6999 180.4 80.7999C182.3 80.7999 183.1 80.4999 182.7 78.2999C180.4 66.0999 166.7 52.6 154.3 50.1C152.2 49.7 152 50.3 152.1 52C152.1 56.4 152.1 60.7 152.1 65.1Z" fill="black"/>
<path d="M96.1 224.7C96.1 215.1 96.2 205.5 96 195.9C96 193.4 96.7 192.6 99.2 192.8C102.7 193 106.2 192.9 109.7 192.8C111.7 192.7 112.2 193.5 112.2 195.4C112.1 215 112.1 234.6 112.2 254.2C112.2 256.1 111.5 256.9 109.6 256.8C106.1 256.7 102.6 256.6 99.1 256.8C96.5 257 96 255.9 96 253.5C96.2 243.9 96.1 234.3 96.1 224.7Z" fill="black"/>
<path d="M64.3 232.8C64.3 239.7 64.2 246.5 64.3 253.4C64.3 255.7 63.8 256.8 61.2 256.7C57.7 256.5 54.2 256.6 50.7 256.7C48.8 256.8 48.1 256 48.1 254.1C48.2 239.9 48.2 225.6 48.1 211.4C48.1 209.2 49 208.6 51 208.7C54.4 208.8 57.7 208.9 61.1 208.7C63.6 208.6 64.3 209.5 64.3 211.9C64.2 218.8 64.3 225.8 64.3 232.8Z" fill="black"/>
<path d="M191.9 232.6C191.9 225.7 192 218.9 191.9 212C191.9 209.7 192.4 208.5 195 208.7C198.5 208.9 202 208.8 205.5 208.7C207.4 208.6 208.1 209.4 208.1 211.3C208 225.5 208 239.8 208.1 254C208.1 256.2 207.2 256.8 205.2 256.7C201.8 256.6 198.5 256.5 195.1 256.7C192.6 256.8 191.9 256 191.9 253.5C192 246.6 191.9 239.6 191.9 232.6Z" fill="black"/>
<path d="M144 240.8C144 236.4 144.1 232.1 144 227.7C144 225.7 144.4 224.7 146.7 224.8C150.3 224.9 153.9 224.9 157.5 224.8C159.4 224.8 160.2 225.4 160.1 227.4C160 236.4 160 245.4 160.1 254.4C160.1 256.2 159.3 256.8 157.6 256.8C153.9 256.7 150.1 256.7 146.4 256.8C144.3 256.9 143.9 255.8 143.9 254C144.1 249.6 144 245.2 144 240.8Z" fill="black"/>
<path d="M255.9 144.7C255.9 186.8 255.9 228.9 255.9 271C255.9 280.2 251.2 286.6 243.1 288.4C241.5 288.7 239.9 288.8 238.3 288.8C164.8 288.8 91.4 288.8 17.9 288.8C6.90002 288.8 0.299988 282.3 0.299988 271.4C0.299988 187.1 0.299988 102.7 0.299988 18.4C0.299988 7.29998 6.89998 0.799988 18.1 0.799988C91.4 0.799988 164.8 0.799988 238.1 0.799988C249.4 0.799988 255.9 7.29997 255.9 18.8C255.9 60.7 255.9 102.7 255.9 144.7ZM239.8 144.7C239.8 103.5 239.8 62.2 239.9 21C239.9 17.5 238.9 16.7 235.5 16.7C163.9 16.8 92.3 16.8 20.7 16.7C17.3 16.7 16.3 17.5 16.3 21C16.4 103.5 16.4 186 16.3 268.5C16.3 272.2 17.3 273 20.9 273C92.4 272.9 163.9 272.9 235.4 273C238.9 273 240 272.2 240 268.5C239.8 227.2 239.8 185.9 239.8 144.7Z" fill="#1E0068"/>
<path d="M128.2 160.7C100.1 160.7 75.6 139.3 72.8 112.2C69.6 82.1 88.2 56 116.8 49.9C119.6 49.3 120.3 49.9 120.2 52.6C120 55.8 120 59.1 120.2 62.3C120.4 64.8 119.4 65.6 117.1 66.3C100.9 71.6 90.8 82.7 88.8 99.6C86.7 116.7 93.5 130.3 108.3 139.1C130.2 152.3 158.9 140.9 166.3 116.2C167.2 113.2 168.3 112.1 171.4 112.4C174.1 112.7 176.9 112.7 179.6 112.4C183.4 112 183.6 113.5 182.9 116.6C177.4 142.1 154.3 160.7 128.2 160.7Z" fill="#1E0068"/>
<path d="M168 96.7C158.4 96.7 148.8 96.6 139.2 96.7C137 96.7 136.2 96.1999 136.2 93.7999C136.3 74.4 136.2 55.1 136.3 35.7C136.3 34.2 136 32.8 138.4 32.7C170.5 30.5 191.8 51.2 198 73.4C199.9 80.4 200.2 87.4 200.2 94.6C200.2 97 198.8 96.7999 197.3 96.7999C187.4 96.6999 177.7 96.7 168 96.7ZM152.1 65.1C152.1 69.5 152.2 73.8 152.1 78.2C152.1 80.1 152.6 80.8999 154.6 80.7999C163.2 80.6999 171.8 80.6999 180.4 80.7999C182.3 80.7999 183.1 80.4999 182.7 78.2999C180.4 66.0999 166.7 52.6 154.3 50.1C152.2 49.7 152 50.3 152.1 52C152.1 56.4 152.1 60.7 152.1 65.1Z" fill="#1E0068"/>
<path d="M96.1 224.7C96.1 215.1 96.2 205.5 96 195.9C96 193.4 96.7 192.6 99.2 192.8C102.7 193 106.2 192.9 109.7 192.8C111.7 192.7 112.2 193.5 112.2 195.4C112.1 215 112.1 234.6 112.2 254.2C112.2 256.1 111.5 256.9 109.6 256.8C106.1 256.7 102.6 256.6 99.1 256.8C96.5 257 96 255.9 96 253.5C96.2 243.9 96.1 234.3 96.1 224.7Z" fill="#1E0068"/>
<path d="M64.3 232.8C64.3 239.7 64.2 246.5 64.3 253.4C64.3 255.7 63.8 256.8 61.2 256.7C57.7 256.5 54.2 256.6 50.7 256.7C48.8 256.8 48.1 256 48.1 254.1C48.2 239.9 48.2 225.6 48.1 211.4C48.1 209.2 49 208.6 51 208.7C54.4 208.8 57.7 208.9 61.1 208.7C63.6 208.6 64.3 209.5 64.3 211.9C64.2 218.8 64.3 225.8 64.3 232.8Z" fill="#1E0068"/>
<path d="M191.9 232.6C191.9 225.7 192 218.9 191.9 212C191.9 209.7 192.4 208.5 195 208.7C198.5 208.9 202 208.8 205.5 208.7C207.4 208.6 208.1 209.4 208.1 211.3C208 225.5 208 239.8 208.1 254C208.1 256.2 207.2 256.8 205.2 256.7C201.8 256.6 198.5 256.5 195.1 256.7C192.6 256.8 191.9 256 191.9 253.5C192 246.6 191.9 239.6 191.9 232.6Z" fill="#1E0068"/>
<path d="M144 240.8C144 236.4 144.1 232.1 144 227.7C144 225.7 144.4 224.7 146.7 224.8C150.3 224.9 153.9 224.9 157.5 224.8C159.4 224.8 160.2 225.4 160.1 227.4C160 236.4 160 245.4 160.1 254.4C160.1 256.2 159.3 256.8 157.6 256.8C153.9 256.7 150.1 256.7 146.4 256.8C144.3 256.9 143.9 255.8 143.9 254C144.1 249.6 144 245.2 144 240.8Z" fill="#1E0068"/>
</svg>
