<?xml version="1.0" encoding="utf-8"?>
<!-- Generator: Adobe Illustrator 27.5.0, SVG Export Plug-In . SVG Version: 6.00 Build 0)  -->
<svg version="1.1" id="Outline" xmlns="http://www.w3.org/2000/svg" xmlns:xlink="http://www.w3.org/1999/xlink" x="0px" y="0px"
	 viewBox="0 0 512 512" style="enable-background:new 0 0 512 512;" xml:space="preserve">
<style type="text/css">
	.st0{fill:#1E0068;}
</style>
<path class="st0" d="M149.3,0h-64C38.2,0,0,38.2,0,85.3v64c0,47.1,38.2,85.3,85.3,85.3h64c47.1,0,85.3-38.2,85.3-85.3v-64
	C234.7,38.2,196.5,0,149.3,0z M192,149.3c0,23.6-19.1,42.7-42.7,42.7h-64c-23.6,0-42.7-19.1-42.7-42.7v-64
	c0-23.6,19.1-42.7,42.7-42.7h64c23.6,0,42.7,19.1,42.7,42.7V149.3z"/>
<path class="st0" d="M149.3,277.3h-64C38.2,277.3,0,315.5,0,362.7v64C0,473.8,38.2,512,85.3,512h64c47.1,0,85.3-38.2,85.3-85.3v-64
	C234.7,315.5,196.5,277.3,149.3,277.3z M192,426.7c0,23.6-19.1,42.7-42.7,42.7h-64c-23.6,0-42.7-19.1-42.7-42.7v-64
	c0-23.6,19.1-42.7,42.7-42.7h64c23.6,0,42.7,19.1,42.7,42.7V426.7z"/>
<path class="st0" d="M426.7,277.3h-64c-47.1,0-85.3,38.2-85.3,85.3v64c0,47.1,38.2,85.3,85.3,85.3h64c47.1,0,85.3-38.2,85.3-85.3
	v-64C512,315.5,473.8,277.3,426.7,277.3z M469.3,426.7c0,23.6-19.1,42.7-42.7,42.7h-64c-23.6,0-42.7-19.1-42.7-42.7v-64
	c0-23.6,19.1-42.7,42.7-42.7h64c23.6,0,42.7,19.1,42.7,42.7V426.7z"/>
<path class="st0" d="M298.7,149.3h64v64c0,11.8,9.6,21.3,21.3,21.3c11.8,0,21.3-9.6,21.3-21.3v-64h64c11.8,0,21.3-9.6,21.3-21.3
	s-9.6-21.3-21.3-21.3h-64v-64c0-11.8-9.6-21.3-21.3-21.3c-11.8,0-21.3,9.6-21.3,21.3v64h-64c-11.8,0-21.3,9.6-21.3,21.3
	S286.9,149.3,298.7,149.3z"/>
</svg>
