<svg width="384" height="226" viewBox="0 0 384 226" fill="none" xmlns="http://www.w3.org/2000/svg">
<path d="M383.7 164.5C383 167.7 382.4 170.8 381.6 174C374.1 203.6 347.3 225.1 316.9 225.2C233.6 225.4 150.3 225.4 66.9 225.2C32.5 225.1 3.69997 197.7 0.499973 163.1C-2.50003 130.2 21.0999 98.7 54.0999 91.9C56.5999 91.4 57.2 90.4 57.3 88C58.6 37.1 101.9 -2.90002 152.6 0.499985C182.1 2.49998 205.2 16.3 221.8 40.7C223.5 43.2 224.5 43.9 227.5 42.2C266.9 20.6 316.3 43.6 325.3 87.7C325.8 90.4 327 91.3 329.6 91.8C356.7 96.9 379.2 120.5 383 147.8C383.2 148.9 383.5 150 383.7 151C383.7 155.5 383.7 160 383.7 164.5ZM192.1 202.7C233.5 202.7 274.9 202.8 316.3 202.7C338 202.6 357.1 186.4 360.5 165.7C364.1 143.5 351.9 122.9 330.8 115.4C323.2 112.7 315.4 112.6 307.5 112.9C305.2 113 304.1 112.5 304.3 109.9C304.5 106.9 304.5 103.9 304.3 100.9C303.3 81.9 294.4 68 277 60.4C259.7 52.9 243.6 56 229.3 68.4C225.5 71.7 222 75.3 218.6 78.9C216.6 80.9 215.5 81.5 214.5 78.2C213.2 74.3 211.6 70.5 210 66.7C197.8 36.3 170.1 19.8 137.7 23.7C102.5 27.9 76 61.8 80.4 97.3C80.9 101.5 81.3 105.8 82.2 109.9C82.8 112.9 81.7 113.2 79.3 113.1C75.1 112.9 70.8 113 66.6 113.1C37.9 113.9 17.1 141.8 24.5 169.6C29.7 189.2 47.9 203 69 203.1C110 202.8 151.1 202.8 192.1 202.7Z" fill="#141414"/>
<path d="M383.7 164.5C383 167.7 382.4 170.8 381.6 174C374.1 203.6 347.3 225.1 316.9 225.2C233.6 225.4 150.3 225.4 66.9 225.2C32.5 225.1 3.69997 197.7 0.499973 163.1C-2.50003 130.2 21.0999 98.7 54.0999 91.9C56.5999 91.4 57.2 90.4 57.3 88C58.6 37.1 101.9 -2.90002 152.6 0.499985C182.1 2.49998 205.2 16.3 221.8 40.7C223.5 43.2 224.5 43.9 227.5 42.2C266.9 20.6 316.3 43.6 325.3 87.7C325.8 90.4 327 91.3 329.6 91.8C356.7 96.9 379.2 120.5 383 147.8C383.2 148.9 383.5 150 383.7 151C383.7 155.5 383.7 160 383.7 164.5ZM192.1 202.7C233.5 202.7 274.9 202.8 316.3 202.7C338 202.6 357.1 186.4 360.5 165.7C364.1 143.5 351.9 122.9 330.8 115.4C323.2 112.7 315.4 112.6 307.5 112.9C305.2 113 304.1 112.5 304.3 109.9C304.5 106.9 304.5 103.9 304.3 100.9C303.3 81.9 294.4 68 277 60.4C259.7 52.9 243.6 56 229.3 68.4C225.5 71.7 222 75.3 218.6 78.9C216.6 80.9 215.5 81.5 214.5 78.2C213.2 74.3 211.6 70.5 210 66.7C197.8 36.3 170.1 19.8 137.7 23.7C102.5 27.9 76 61.8 80.4 97.3C80.9 101.5 81.3 105.8 82.2 109.9C82.8 112.9 81.7 113.2 79.3 113.1C75.1 112.9 70.8 113 66.6 113.1C37.9 113.9 17.1 141.8 24.5 169.6C29.7 189.2 47.9 203 69 203.1C110 202.8 151.1 202.8 192.1 202.7Z" fill="#1E0068"/>
</svg>
