<?xml version="1.0" encoding="utf-8"?>
<!-- Generator: Adobe Illustrator 27.5.0, SVG Export Plug-In . SVG Version: 6.00 Build 0)  -->
<svg version="1.1" id="Layer_1" xmlns="http://www.w3.org/2000/svg" xmlns:xlink="http://www.w3.org/1999/xlink" x="0px" y="0px"
	 viewBox="0 0 512 512" style="enable-background:new 0 0 512 512;" xml:space="preserve">
<style type="text/css">
	.st0{fill:#1E0068;}
</style>
<path class="st0" d="M384,512H222.7l6.2-26.2c3.2-12.4,5.1-25,5.8-37.8c0-23.6-19.1-42.7-42.7-42.7s-42.7,19.1-42.7,42.7
	c0.7,12.7,2.6,25.4,5.8,37.8l6.2,26.2H0V192c0-35.3,28.7-64,64-64h48.5c-3.4-14-5.3-28.3-5.8-42.7C106.7,38.2,144.9,0,192,0
	s85.3,38.2,85.3,85.3c-0.5,14.4-2.4,28.7-5.8,42.7H320c35.3,0,64,28.7,64,64v37.8c14-3.4,28.3-5.3,42.7-5.8
	c47.1,0,85.3,38.2,85.3,85.3s-38.2,85.3-85.3,85.3c-14.4-0.5-28.7-2.4-42.7-5.8V512z M275.5,469.3h65.8V332.4l27.5,8.4
	c18.7,6.1,38.1,9.9,57.8,11.2c23.6,0,42.7-19.1,42.7-42.7s-19.1-42.7-42.7-42.7c-19.7,1.3-39.1,5.1-57.8,11.2l-27.5,8.4V192
	c0-11.8-9.6-21.3-21.3-21.3H215.1l8.4-27.5c6.1-18.7,9.9-38.1,11.2-57.8c0-23.6-19.1-42.7-42.7-42.7s-42.7,19.1-42.7,42.7
	c1.3,19.7,5.1,39.1,11.2,57.8l8.4,27.5H64c-11.8,0-21.3,9.6-21.3,21.3v277.3h65.8c-1.1-7.1-1.7-14.2-1.8-21.3
	c0-47.1,38.2-85.3,85.3-85.3s85.3,38.2,85.3,85.3C277.2,455.1,276.6,462.3,275.5,469.3z"/>
</svg>
