<?xml version="1.0" encoding="utf-8"?>
<!-- Generator: Adobe Illustrator 27.5.0, SVG Export Plug-In . SVG Version: 6.00 Build 0)  -->
<svg version="1.1" id="Layer_1" xmlns="http://www.w3.org/2000/svg" xmlns:xlink="http://www.w3.org/1999/xlink" x="0px" y="0px"
	 viewBox="0 0 512 512" style="enable-background:new 0 0 512 512;" xml:space="preserve">
<style type="text/css">
	.st0{fill:#1E0068;}
</style>
<path class="st0" d="M341.3,341.3c0,11.8-9.6,21.3-21.3,21.3h-42.7v42.7c0,11.8-9.6,21.3-21.3,21.3s-21.3-9.6-21.3-21.3v-42.7H192
	c-11.8,0-21.3-9.6-21.3-21.3S180.2,320,192,320h42.7v-42.7c0-11.8,9.6-21.3,21.3-21.3s21.3,9.6,21.3,21.3V320H320
	C331.8,320,341.3,329.6,341.3,341.3z M469.3,223.7v181.7c0,58.8-47.9,106.7-106.7,106.7H149.3c-58.8,0-106.7-47.9-106.7-106.7V106.7
	C42.7,47.9,90.5,0,149.3,0h96.3c39.9,0,77.4,15.5,105.6,43.7l74.3,74.3C453.8,146.3,469.3,183.8,469.3,223.7L469.3,223.7z
	 M321.1,73.9c-6.8-6.8-14.3-12.5-22.4-17.2v92.6c0,11.8,9.6,21.3,21.3,21.3h92.6c-4.7-8.1-10.4-15.6-17.2-22.4L321.1,73.9
	L321.1,73.9z M426.7,223.7c0-3.5-0.2-6.9-0.5-10.3H320c-35.3,0-64-28.7-64-64V43.2c-3.4-0.3-6.9-0.5-10.3-0.5h-96.3
	c-35.3,0-64,28.7-64,64v298.7c0,35.3,28.7,64,64,64h213.3c35.3,0,64-28.7,64-64V223.7L426.7,223.7z"/>
</svg>
