<svg width="383" height="397" viewBox="0 0 383 397" fill="none" xmlns="http://www.w3.org/2000/svg">
<path d="M245.7 0.799988C250.4 2.69999 252.1 6.09999 252 11.1C251.8 20.8 252.1 30.4 251.8 40.1C251.7 43.9 252.5 45 256.6 45C293.3 44.8 330 44.9 366.7 44.9C378.1 44.9 383 49.8 383 61.1C383 106.2 383 151.2 383 196.3C383 207.4 378 212.4 367 212.4C358.4 212.4 349.8 212.4 340.6 212.4C342.7 217.5 344.7 222.3 346.5 227C346.9 228.1 348 229.3 346.8 230.6C345.6 231.9 344.4 230.7 343.3 230.2C324 220.7 304.8 211.2 285.6 201.7C284.5 201.1 283 200.7 283.1 199.1C283.2 197.8 284.5 197.4 285.5 196.8C304.9 187.2 324.2 177.6 343.6 168.1C344.6 167.6 345.6 166.7 346.8 167.7C348 168.7 347.1 169.9 346.7 170.9C345.1 174.8 343.7 178.8 341.8 182.7C340.3 185.9 341.3 186.4 344.3 186.2C347.2 186 350.2 186 353.2 186.2C356 186.4 356.7 185.3 356.7 182.6C356.6 170.8 356.7 158.9 356.7 147.1C356.7 123.1 356.6 99.2 356.8 75.3C356.8 72.1 355.9 71.2 352.7 71.2C320.4 71.3 288.1 71.3 255.7 71.2C252.6 71.2 251.8 72.1 251.9 75.1C252.1 85.1 252 95.2 252 105.2C252 112.6 249.3 115.4 242.1 115.4C210.6 115.4 179 115.4 147.5 115.4C140.5 115.4 137.6 112.5 137.6 105.6C137.6 74.1 137.6 42.5 137.5 11C137.5 6.19998 139.3 2.89998 143.8 0.999985C177.7 0.799985 211.7 0.799988 245.7 0.799988ZM194.3 88.9C203.7 88.9 213.1 88.8 222.5 89C225 89 225.8 88.3 225.8 85.8C225.7 67.3 225.7 48.8 225.8 30.3C225.8 27.8 225.2 27 222.6 27.1C204.1 27.2 185.6 27.2 167.1 27.1C164.6 27.1 163.8 27.7 163.9 30.3C164 48.8 164 67.3 163.9 85.8C163.9 88.3 164.5 89.1 167.1 89.1C176 88.9 185.1 88.9 194.3 88.9Z" fill="white"/>
<path d="M42.5999 353.3C32.9999 353.3 24.0999 353.3 15.2999 353.3C5.29993 353.3 0.199951 348.3 0.199951 338.4C0.199951 292.6 0.199951 246.7 0.199951 200.9C0.199951 191.2 5.39995 186.1 15.0999 186.1C54.3999 186.1 93.6 186 132.9 186.2C136.6 186.2 137.7 185.3 137.6 181.5C137.3 171.5 137.5 161.4 137.5 151.4C137.5 144.4 140.4 141.4 147.3 141.4C179 141.4 210.7 141.4 242.3 141.4C249 141.4 251.9 144.3 251.9 151.1C251.9 182.8 251.9 214.5 251.9 246.1C251.9 252.9 249 255.8 242.3 255.8C210.6 255.8 178.9 255.8 147.3 255.8C140.4 255.8 137.5 252.9 137.5 245.8C137.5 235.8 137.4 225.7 137.6 215.7C137.6 213 136.8 212.3 134.1 212.3C99.4999 212.4 64.7999 212.4 30.2 212.3C27.3 212.3 26.4999 213.1 26.4999 216C26.5999 251.8 26.5999 287.6 26.4999 323.4C26.4999 326.2 27.2 327.3 30.2 327.1C34.2 326.8 38.0999 327 42.5999 327C40.4999 321.8 38.4999 317.1 36.5999 312.4C36.1999 311.3 35.0999 310 36.2999 308.8C37.4999 307.6 38.6999 308.7 39.7999 309.2C59.0999 318.7 78.2999 328.2 97.4999 337.7C98.5999 338.3 100.1 338.7 99.9999 340.3C99.8999 341.6 98.5999 342 97.5999 342.5C78.1999 352.1 58.8999 361.6 39.4999 371.2C38.4999 371.7 37.4999 372.6 36.2999 371.6C35.0999 370.6 36 369.4 36.4 368.4C38.4 363.6 40.3999 358.7 42.5999 353.3ZM225.6 198.4C225.6 189.1 225.5 179.9 225.6 170.6C225.6 168.3 225.1 167.5 222.6 167.5C204 167.6 185.3 167.6 166.7 167.5C164.4 167.5 163.6 168 163.6 170.5C163.7 189.1 163.7 207.8 163.6 226.4C163.6 228.7 164.1 229.5 166.6 229.5C185.2 229.4 203.9 229.4 222.5 229.5C225.2 229.5 225.6 228.5 225.6 226.1C225.6 217 225.6 207.7 225.6 198.4Z" fill="white"/>
<path d="M137.5 339.2C137.5 323.6 137.5 308 137.5 292.5C137.5 284.6 140.1 281.9 147.8 281.9C179.1 281.9 210.4 281.9 241.6 281.9C249.2 281.9 251.9 284.6 251.9 292.1C251.9 323.5 251.9 354.9 251.9 386.3C251.9 393.6 249.1 396.4 241.8 396.4C210.4 396.4 179 396.4 147.6 396.4C140.4 396.4 137.5 393.5 137.5 386.4C137.5 370.6 137.5 354.9 137.5 339.2ZM225.6 339.6C225.6 330.2 225.5 320.8 225.7 311.4C225.7 308.9 225.1 308.1 222.5 308.1C204 308.2 185.5 308.2 167 308.1C164.5 308.1 163.7 308.7 163.7 311.3C163.8 329.8 163.8 348.3 163.7 366.8C163.7 369.2 164.3 370.1 166.9 370.1C185.4 370 203.9 370 222.4 370.1C225.3 370.1 225.7 369 225.7 366.5C225.6 357.6 225.6 348.6 225.6 339.6Z" fill="white"/>
<path d="M245.7 0.799988C250.4 2.69999 252.1 6.09999 252 11.1C251.8 20.8 252.1 30.4 251.8 40.1C251.7 43.9 252.5 45 256.6 45C293.3 44.8 330 44.9 366.7 44.9C378.1 44.9 383 49.8 383 61.1C383 106.2 383 151.2 383 196.3C383 207.4 378 212.4 367 212.4C358.4 212.4 349.8 212.4 340.6 212.4C342.7 217.5 344.7 222.3 346.5 227C346.9 228.1 348 229.3 346.8 230.6C345.6 231.9 344.4 230.7 343.3 230.2C324 220.7 304.8 211.2 285.6 201.7C284.5 201.1 283 200.7 283.1 199.1C283.2 197.8 284.5 197.4 285.5 196.8C304.9 187.2 324.2 177.6 343.6 168.1C344.6 167.6 345.6 166.7 346.8 167.7C348 168.7 347.1 169.9 346.7 170.9C345.1 174.8 343.7 178.8 341.8 182.7C340.3 185.9 341.3 186.4 344.3 186.2C347.2 186 350.2 186 353.2 186.2C356 186.4 356.7 185.3 356.7 182.6C356.6 170.8 356.7 158.9 356.7 147.1C356.7 123.1 356.6 99.2 356.8 75.3C356.8 72.1 355.9 71.2 352.7 71.2C320.4 71.3 288.1 71.3 255.7 71.2C252.6 71.2 251.8 72.1 251.9 75.1C252.1 85.1 252 95.2 252 105.2C252 112.6 249.3 115.4 242.1 115.4C210.6 115.4 179 115.4 147.5 115.4C140.5 115.4 137.6 112.5 137.6 105.6C137.6 74.1 137.6 42.5 137.5 11C137.5 6.19998 139.3 2.89998 143.8 0.999985C177.7 0.799985 211.7 0.799988 245.7 0.799988ZM194.3 88.9C203.7 88.9 213.1 88.8 222.5 89C225 89 225.8 88.3 225.8 85.8C225.7 67.3 225.7 48.8 225.8 30.3C225.8 27.8 225.2 27 222.6 27.1C204.1 27.2 185.6 27.2 167.1 27.1C164.6 27.1 163.8 27.7 163.9 30.3C164 48.8 164 67.3 163.9 85.8C163.9 88.3 164.5 89.1 167.1 89.1C176 88.9 185.1 88.9 194.3 88.9Z" fill="white"/>
<path d="M42.5999 353.3C32.9999 353.3 24.0999 353.3 15.2999 353.3C5.29993 353.3 0.199951 348.3 0.199951 338.4C0.199951 292.6 0.199951 246.7 0.199951 200.9C0.199951 191.2 5.39995 186.1 15.0999 186.1C54.3999 186.1 93.6 186 132.9 186.2C136.6 186.2 137.7 185.3 137.6 181.5C137.3 171.5 137.5 161.4 137.5 151.4C137.5 144.4 140.4 141.4 147.3 141.4C179 141.4 210.7 141.4 242.3 141.4C249 141.4 251.9 144.3 251.9 151.1C251.9 182.8 251.9 214.5 251.9 246.1C251.9 252.9 249 255.8 242.3 255.8C210.6 255.8 178.9 255.8 147.3 255.8C140.4 255.8 137.5 252.9 137.5 245.8C137.5 235.8 137.4 225.7 137.6 215.7C137.6 213 136.8 212.3 134.1 212.3C99.4999 212.4 64.7999 212.4 30.2 212.3C27.3 212.3 26.4999 213.1 26.4999 216C26.5999 251.8 26.5999 287.6 26.4999 323.4C26.4999 326.2 27.2 327.3 30.2 327.1C34.2 326.8 38.0999 327 42.5999 327C40.4999 321.8 38.4999 317.1 36.5999 312.4C36.1999 311.3 35.0999 310 36.2999 308.8C37.4999 307.6 38.6999 308.7 39.7999 309.2C59.0999 318.7 78.2999 328.2 97.4999 337.7C98.5999 338.3 100.1 338.7 99.9999 340.3C99.8999 341.6 98.5999 342 97.5999 342.5C78.1999 352.1 58.8999 361.6 39.4999 371.2C38.4999 371.7 37.4999 372.6 36.2999 371.6C35.0999 370.6 36 369.4 36.4 368.4C38.4 363.6 40.3999 358.7 42.5999 353.3ZM225.6 198.4C225.6 189.1 225.5 179.9 225.6 170.6C225.6 168.3 225.1 167.5 222.6 167.5C204 167.6 185.3 167.6 166.7 167.5C164.4 167.5 163.6 168 163.6 170.5C163.7 189.1 163.7 207.8 163.6 226.4C163.6 228.7 164.1 229.5 166.6 229.5C185.2 229.4 203.9 229.4 222.5 229.5C225.2 229.5 225.6 228.5 225.6 226.1C225.6 217 225.6 207.7 225.6 198.4Z" fill="white"/>
<path d="M137.5 339.2C137.5 323.6 137.5 308 137.5 292.5C137.5 284.6 140.1 281.9 147.8 281.9C179.1 281.9 210.4 281.9 241.6 281.9C249.2 281.9 251.9 284.6 251.9 292.1C251.9 323.5 251.9 354.9 251.9 386.3C251.9 393.6 249.1 396.4 241.8 396.4C210.4 396.4 179 396.4 147.6 396.4C140.4 396.4 137.5 393.5 137.5 386.4C137.5 370.6 137.5 354.9 137.5 339.2ZM225.6 339.6C225.6 330.2 225.5 320.8 225.7 311.4C225.7 308.9 225.1 308.1 222.5 308.1C204 308.2 185.5 308.2 167 308.1C164.5 308.1 163.7 308.7 163.7 311.3C163.8 329.8 163.8 348.3 163.7 366.8C163.7 369.2 164.3 370.1 166.9 370.1C185.4 370 203.9 370 222.4 370.1C225.3 370.1 225.7 369 225.7 366.5C225.6 357.6 225.6 348.6 225.6 339.6Z" fill="white"/>
</svg>
