<?xml version="1.0" encoding="utf-8"?>
<!-- Generator: Adobe Illustrator 27.5.0, SVG Export Plug-In . SVG Version: 6.00 Build 0)  -->
<svg version="1.1" id="Capa_1" xmlns="http://www.w3.org/2000/svg" xmlns:xlink="http://www.w3.org/1999/xlink" x="0px" y="0px"
	 viewBox="0 0 512 512" style="enable-background:new 0 0 512 512;" xml:space="preserve">
<style type="text/css">
	.st0{fill:#FFFFFF;}
</style>
<g>
	<path class="st0" d="M502.6,457.5l-99.1-99.1c74.1-99.1,53.9-239.5-45.2-313.7S118.9-9.2,44.7,89.8S-9.2,329.4,89.9,403.5
		c79.6,59.6,188.9,59.6,268.5,0l99.1,99.1c12.5,12.5,32.7,12.5,45.1,0C515.1,490.2,515.1,470,502.6,457.5L502.6,457.5z M224.9,384.4
		c-88.1,0-159.5-71.4-159.5-159.5S136.9,65.5,224.9,65.5S384.4,136.9,384.4,225C384.3,313,313,384.3,224.9,384.4z"/>
</g>
</svg>
