<?xml version="1.0" encoding="utf-8"?>
<!-- Generator: Adobe Illustrator 27.5.0, SVG Export Plug-In . SVG Version: 6.00 Build 0)  -->
<svg version="1.1" id="Capa_1" xmlns="http://www.w3.org/2000/svg" xmlns:xlink="http://www.w3.org/1999/xlink" x="0px" y="0px"
	 viewBox="0 0 512 512" style="enable-background:new 0 0 512 512;" xml:space="preserve">
<style type="text/css">
	.st0{fill:#FFFFFF;}
</style>
<g id="_01_align_center">
	<path class="st0" d="M255.1,512.2l-14.9-12.7C219.7,482.3,40.7,327.7,40.7,214.6c0-118.4,96-214.4,214.4-214.4
		s214.4,96,214.4,214.4c0,113.1-179,267.7-199.4,284.9L255.1,512.2z M255.1,46.6c-92.8,0.1-167.9,75.3-168,168
		c0,71,110.1,184.5,168,236.5c57.9-52,168-165.5,168-236.5C423,121.8,347.9,46.7,255.1,46.6z"/>
	<path class="st0" d="M255.1,299.6c-46.9,0-85-38-85-85s38-85,85-85s85,38,85,85S302,299.6,255.1,299.6z M255.1,172.1
		c-23.5,0-42.5,19-42.5,42.5s19,42.5,42.5,42.5s42.5-19,42.5-42.5S278.6,172.1,255.1,172.1z"/>
</g>
</svg>
