<?xml version="1.0" encoding="utf-8"?>
<!-- Generator: Adobe Illustrator 27.5.0, SVG Export Plug-In . SVG Version: 6.00 Build 0)  -->
<svg version="1.1" id="Layer_1" xmlns="http://www.w3.org/2000/svg" xmlns:xlink="http://www.w3.org/1999/xlink" x="0px" y="0px"
	 viewBox="0 0 512 512" style="enable-background:new 0 0 512 512;" xml:space="preserve">
<style type="text/css">
	.st0{fill:#FFFFFF;}
</style>
<path class="st0" d="M469.3,362.7v-21.3c0-58.9-47.8-106.7-106.7-106.7h-85.3v-85.3c23.5,0,42.7-19.2,42.7-42.7V64
	c0-23.5-19.2-42.7-42.7-42.7h-42.7C211.2,21.3,192,40.5,192,64v42.7c0,23.5,19.2,42.7,42.7,42.7v85.3h-85.3
	c-58.9,0-106.7,47.8-106.7,106.7v21.3C19.2,362.7,0,381.9,0,405.3V448c0,23.5,19.2,42.7,42.7,42.7h42.7c23.5,0,42.7-19.2,42.7-42.7
	v-42.7c0-23.5-19.2-42.7-42.7-42.7v-21.3c0-35.2,28.8-64,64-64h85.3v85.3c-23.5,0-42.7,19.2-42.7,42.7V448
	c0,23.5,19.2,42.7,42.7,42.7h42.7c23.5,0,42.7-19.2,42.7-42.7v-42.7c0-23.5-19.2-42.7-42.7-42.7v-85.3h85.3c35.2,0,64,28.8,64,64
	v21.3c-23.5,0-42.7,19.2-42.7,42.7V448c0,23.5,19.2,42.7,42.7,42.7h42.7c23.5,0,42.7-19.2,42.7-42.7v-42.7
	C512,381.9,492.8,362.7,469.3,362.7z M234.7,64h42.7v42.7h-42.7V64z M85.3,448H42.7v-42.7h42.7L85.3,448L85.3,448z M277.3,448h-42.7
	v-42.7h42.7V448z M469.3,448h-42.7v-42.7h42.7V448z"/>
</svg>
