<svg width="385" height="301" viewBox="0 0 385 301" fill="none" xmlns="http://www.w3.org/2000/svg">
<path d="M384.2 246.2C382.1 249.2 379.2 250 375.5 250C355.2 249.9 334.8 249.9 314.5 249.9C308.2 249.9 306.3 248 306.3 241.6C306.3 235.4 306.4 229.1 306.3 222.9C306.1 211.1 296.9 201.9 285.3 202C273.8 202 264.6 211.2 264.4 223C264.3 229.4 264.4 235.7 264.4 242.1C264.4 247.9 262.4 249.9 256.5 249.9C216.7 249.9 176.9 250 137.1 249.8C133.1 249.8 132.5 251 132.5 254.6C132.6 261.1 133.1 267.6 132 274C129 290.5 113.8 302.1 97.1 300.8C80.6 299.5 67.4 285.7 66.9 269.1C66.7 263.9 66.7 258.6 66.9 253.4C67 250.6 66.3 249.8 63.4 249.9C45.3 250 27.2 250 9.10004 250C2.80004 250 0.900024 248.1 0.900024 241.7C0.900024 181.2 0.900024 120.7 0.900024 60.2C0.900024 53.8 2.80004 51.9 9.10004 51.9C29.6 51.9 50 51.9 70.5 51.9C76.9 51.9 78.7 53.8 78.8 60.1C78.8 66.3 78.7 72.6 78.8 78.8C79 90.6 88.2 99.8 99.7 99.8C111.2 99.8 120.5 90.6 120.7 78.8C120.8 72.6 120.7 66.3 120.7 60.1C120.7 53.7 122.5 51.8 128.9 51.8C168.6 51.8 208.2 51.7 247.9 51.9C251.7 51.9 252.7 51 252.6 47.2C252.4 40.7 251.9 34.2 253.1 27.8C256.1 11.3 271.1 -0.300004 288 0.899996C304.5 2.1 317.8 15.9 318.3 32.5C318.5 37.9 318.5 43.3 318.3 48.6C318.2 51.3 319.2 51.9 321.7 51.8C339.7 51.7 357.6 51.8 375.6 51.7C379.3 51.7 382.2 52.5 384.3 55.5C384.2 119.2 384.2 182.7 384.2 246.2ZM229.7 64C220.5 64 211.2 64.1 202 63.9C199.1 63.8 198.5 64.8 198.6 67.5C198.7 85.7 198.7 104 198.7 122.2C198.7 127.9 196.7 129.9 191.1 130C184.7 130 178.4 130 172 130C160 130.1 150.7 139.4 150.8 151.1C150.8 162.6 160 171.8 171.9 172C177.8 172.1 183.6 172 189.5 172C197.2 172 198.8 173.5 198.8 181.1C198.8 199 198.8 216.8 198.8 234.7C198.8 236.8 198.8 238.1 201.7 238.1C217.8 238 233.9 238 250 238.1C252.4 238.1 252.9 237.3 252.8 235.1C252.7 230.5 252.6 225.8 252.8 221.2C253.5 204.9 267 191.2 283.2 190.1C299.9 189 314.9 200.5 317.9 216.8C319 222.8 318.5 228.8 318.5 234.7C318.5 237.3 319.1 238.1 321.8 238.1C337.5 238 353.2 237.9 368.9 238.1C372 238.1 372.5 237.1 372.5 234.3C372.4 178.8 372.4 123.3 372.5 67.8C372.5 64.7 371.8 63.8 368.6 63.9C350.4 64.1 332.2 64 314 64C308.6 64 306.6 61.9 306.5 56.5C306.5 49.1 306.6 41.8 306.5 34.4C306.4 22.3 297.2 13 285.5 13.1C273.8 13.1 264.7 22.4 264.6 34.5C264.5 41.9 264.6 49.2 264.6 56.6C264.6 62 262.5 64.1 257.1 64.1C247.9 64 238.8 64 229.7 64ZM13 151C13 178.7 13.1 206.5 12.9 234.2C12.9 237.4 13.8 238.1 16.8 238.1C34.6 237.9 52.5 238 70.3 238C77 238 78.8 239.8 78.8 246.3C78.8 253.2 78.8 260 78.8 266.9C78.9 279.6 87.9 289 99.8 288.9C111.7 288.9 120.6 279.4 120.7 266.7C120.7 259.8 120.7 253 120.7 246.1C120.7 239.8 122.6 237.9 129 237.9C147.1 237.9 165.2 237.9 183.3 237.9C185 237.9 186.7 238.4 186.7 235.5C186.6 219.1 186.6 202.8 186.7 186.4C186.7 184.4 186 183.9 184.1 183.9C179.7 184 175.4 184 171 183.9C154.2 183.5 140.3 170.5 138.8 153.8C137.4 136.9 149 121.7 165.7 118.6C171.8 117.5 177.9 118.2 184 118C185.5 118 186.6 118 186.6 115.9C186.5 99.3 186.5 82.7 186.6 66C186.6 64.3 186 63.9 184.4 63.9C167.9 63.9 151.5 64 135 63.9C132.8 63.9 132.6 64.8 132.6 66.6C132.7 71 132.7 75.3 132.6 79.7C132.2 96.5 119.1 110.5 102.4 111.8C85.5001 113.2 70.4 101.5 67.3 84.7C66.2 78.9 66.8 73 66.8 67.1C66.8 64.4 66 63.8 63.4 63.8C47.8 63.9 32.2 63.9 16.6 63.8C13.5 63.8 12.7 64.5 12.7 67.7C13 95.5 13 123.3 13 151Z" fill="white"/>
<path d="M384.2 246.2C382.1 249.2 379.2 250 375.5 250C355.2 249.9 334.8 249.9 314.5 249.9C308.2 249.9 306.3 248 306.3 241.6C306.3 235.4 306.4 229.1 306.3 222.9C306.1 211.1 296.9 201.9 285.3 202C273.8 202 264.6 211.2 264.4 223C264.3 229.4 264.4 235.7 264.4 242.1C264.4 247.9 262.4 249.9 256.5 249.9C216.7 249.9 176.9 250 137.1 249.8C133.1 249.8 132.5 251 132.5 254.6C132.6 261.1 133.1 267.6 132 274C129 290.5 113.8 302.1 97.1 300.8C80.6 299.5 67.4 285.7 66.9 269.1C66.7 263.9 66.7 258.6 66.9 253.4C67 250.6 66.3 249.8 63.4 249.9C45.3 250 27.2 250 9.10004 250C2.80004 250 0.900024 248.1 0.900024 241.7C0.900024 181.2 0.900024 120.7 0.900024 60.2C0.900024 53.8 2.80004 51.9 9.10004 51.9C29.6 51.9 50 51.9 70.5 51.9C76.9 51.9 78.7 53.8 78.8 60.1C78.8 66.3 78.7 72.6 78.8 78.8C79 90.6 88.2 99.8 99.7 99.8C111.2 99.8 120.5 90.6 120.7 78.8C120.8 72.6 120.7 66.3 120.7 60.1C120.7 53.7 122.5 51.8 128.9 51.8C168.6 51.8 208.2 51.7 247.9 51.9C251.7 51.9 252.7 51 252.6 47.2C252.4 40.7 251.9 34.2 253.1 27.8C256.1 11.3 271.1 -0.300004 288 0.899996C304.5 2.1 317.8 15.9 318.3 32.5C318.5 37.9 318.5 43.3 318.3 48.6C318.2 51.3 319.2 51.9 321.7 51.8C339.7 51.7 357.6 51.8 375.6 51.7C379.3 51.7 382.2 52.5 384.3 55.5C384.2 119.2 384.2 182.7 384.2 246.2ZM229.7 64C220.5 64 211.2 64.1 202 63.9C199.1 63.8 198.5 64.8 198.6 67.5C198.7 85.7 198.7 104 198.7 122.2C198.7 127.9 196.7 129.9 191.1 130C184.7 130 178.4 130 172 130C160 130.1 150.7 139.4 150.8 151.1C150.8 162.6 160 171.8 171.9 172C177.8 172.1 183.6 172 189.5 172C197.2 172 198.8 173.5 198.8 181.1C198.8 199 198.8 216.8 198.8 234.7C198.8 236.8 198.8 238.1 201.7 238.1C217.8 238 233.9 238 250 238.1C252.4 238.1 252.9 237.3 252.8 235.1C252.7 230.5 252.6 225.8 252.8 221.2C253.5 204.9 267 191.2 283.2 190.1C299.9 189 314.9 200.5 317.9 216.8C319 222.8 318.5 228.8 318.5 234.7C318.5 237.3 319.1 238.1 321.8 238.1C337.5 238 353.2 237.9 368.9 238.1C372 238.1 372.5 237.1 372.5 234.3C372.4 178.8 372.4 123.3 372.5 67.8C372.5 64.7 371.8 63.8 368.6 63.9C350.4 64.1 332.2 64 314 64C308.6 64 306.6 61.9 306.5 56.5C306.5 49.1 306.6 41.8 306.5 34.4C306.4 22.3 297.2 13 285.5 13.1C273.8 13.1 264.7 22.4 264.6 34.5C264.5 41.9 264.6 49.2 264.6 56.6C264.6 62 262.5 64.1 257.1 64.1C247.9 64 238.8 64 229.7 64ZM13 151C13 178.7 13.1 206.5 12.9 234.2C12.9 237.4 13.8 238.1 16.8 238.1C34.6 237.9 52.5 238 70.3 238C77 238 78.8 239.8 78.8 246.3C78.8 253.2 78.8 260 78.8 266.9C78.9 279.6 87.9 289 99.8 288.9C111.7 288.9 120.6 279.4 120.7 266.7C120.7 259.8 120.7 253 120.7 246.1C120.7 239.8 122.6 237.9 129 237.9C147.1 237.9 165.2 237.9 183.3 237.9C185 237.9 186.7 238.4 186.7 235.5C186.6 219.1 186.6 202.8 186.7 186.4C186.7 184.4 186 183.9 184.1 183.9C179.7 184 175.4 184 171 183.9C154.2 183.5 140.3 170.5 138.8 153.8C137.4 136.9 149 121.7 165.7 118.6C171.8 117.5 177.9 118.2 184 118C185.5 118 186.6 118 186.6 115.9C186.5 99.3 186.5 82.7 186.6 66C186.6 64.3 186 63.9 184.4 63.9C167.9 63.9 151.5 64 135 63.9C132.8 63.9 132.6 64.8 132.6 66.6C132.7 71 132.7 75.3 132.6 79.7C132.2 96.5 119.1 110.5 102.4 111.8C85.5001 113.2 70.4 101.5 67.3 84.7C66.2 78.9 66.8 73 66.8 67.1C66.8 64.4 66 63.8 63.4 63.8C47.8 63.9 32.2 63.9 16.6 63.8C13.5 63.8 12.7 64.5 12.7 67.7C13 95.5 13 123.3 13 151Z" fill="white"/>
</svg>
