<svg width="384" height="385" viewBox="0 0 384 385" fill="none" xmlns="http://www.w3.org/2000/svg">
<path d="M0.5 384.8C0.5 364.4 0.599994 344.1 0.399994 323.7C0.399994 321 1.20001 319.1 3.10001 317.2C46.3 274 89.4 230.8 132.5 187.7C134.5 185.7 135 184.2 133.8 181.4C103.1 108.3 144.4 24.9 221.2 4.89999C228.8 2.89999 236.6 2.09999 244.3 0.899994C250.5 0.899994 256.8 0.899994 263 0.899994C265.8 1.99999 268.9 1.8 271.8 2.2C324.1 9.3 368.1 49.4 379.9 100.7C381.5 107.6 382.1 114.7 383.5 121.7C383.5 127.9 383.5 134.2 383.5 140.5C382.2 147.7 381.5 155 379.8 162.2C368.3 212.1 324.6 252.4 274 259.8C249.4 263.4 225.6 260.7 202.6 251C200.4 250.1 199.1 250.4 197.5 252.1C184.8 265 171.9 277.7 159.2 290.6C157.7 292.1 156.2 292.9 154 292.8C149 292.7 144 293 139 292.8C135.9 292.7 135.2 293.9 135.3 296.7C135.5 301.7 135.3 306.7 135.4 311.7C135.4 313.6 134.9 315 133.5 316.3C126.1 323.6 118.8 330.9 111.6 338.3C110.3 339.7 108.9 340.2 107 340.1C101 340.1 95 340.3 89 340.1C86.1 340 85.4 341 85.5 343.8C85.7 349.5 85.5 355.3 85.7 361C85.8 363.2 85.1 364.7 83.5 366.2C77.4 372.4 70.9 378.2 65.2 384.9C43.9 384.8 22.2 384.8 0.5 384.8ZM113.3 288.1C113.3 283.5 113.5 278.8 113.2 274.2C113.1 271.3 113.9 270.3 116.9 270.3C125.8 270.4 134.6 270 143.5 270.1C146.6 270.1 148.8 269.3 151 267C164.6 253.1 178.6 239.5 192.1 225.5C194.9 222.6 196.8 222.4 200.2 224.3C221.4 236.3 244 240.8 268.2 237.8C328.4 230.2 371.2 170.7 359.3 110.8C345.2 39.5 268.4 1.8 204.1 35.4C168.8 53.9 149.4 84 146.2 124C144.5 145 149.5 164.6 159.5 183.1C162.7 189 162.6 189 157.8 193.8C113.6 238.1 69.4 282.3 25.2 326.6C23.8 328 22.6 329.3 22.6 331.7C22.8 340.8 22.7 349.9 22.6 359.1C22.6 361.5 23.2 362.3 25.7 362.2C34.7 362.1 43.7 362.2 52.6 362.1C56.9 362.1 63.2 355.9 63.2 351.5C63.2 341.4 63.2 331.3 63 321.1C62.9 318.4 63.5 317.5 66.4 317.5C76.6 317.6 86.8 317.3 97.1 317.3C99.4 317.3 100.9 316.3 102.7 315C111.3 308.8 114.8 300.6 113 290.2C113.1 289.6 113.3 288.9 113.3 288.1Z" fill="white"/>
<path d="M279.4 149.4C254.9 149.4 235.3 129.7 235.4 105.1C235.5 80.7 255 61.1 279.4 61C303.7 60.9 323.7 80.9 323.7 105.3C323.7 129.6 303.9 149.4 279.4 149.4ZM279.5 126.9C291.5 126.9 301.2 117.3 301.3 105.3C301.4 93.3 291.3 83.2 279.4 83.4C267.4 83.5 257.9 93.2 257.9 105.3C257.9 117.3 267.4 126.9 279.5 126.9Z" fill="white"/>
<path d="M0.5 384.8C0.5 364.4 0.599994 344.1 0.399994 323.7C0.399994 321 1.20001 319.1 3.10001 317.2C46.3 274 89.4 230.8 132.5 187.7C134.5 185.7 135 184.2 133.8 181.4C103.1 108.3 144.4 24.9 221.2 4.89999C228.8 2.89999 236.6 2.09999 244.3 0.899994C250.5 0.899994 256.8 0.899994 263 0.899994C265.8 1.99999 268.9 1.8 271.8 2.2C324.1 9.3 368.1 49.4 379.9 100.7C381.5 107.6 382.1 114.7 383.5 121.7C383.5 127.9 383.5 134.2 383.5 140.5C382.2 147.7 381.5 155 379.8 162.2C368.3 212.1 324.6 252.4 274 259.8C249.4 263.4 225.6 260.7 202.6 251C200.4 250.1 199.1 250.4 197.5 252.1C184.8 265 171.9 277.7 159.2 290.6C157.7 292.1 156.2 292.9 154 292.8C149 292.7 144 293 139 292.8C135.9 292.7 135.2 293.9 135.3 296.7C135.5 301.7 135.3 306.7 135.4 311.7C135.4 313.6 134.9 315 133.5 316.3C126.1 323.6 118.8 330.9 111.6 338.3C110.3 339.7 108.9 340.2 107 340.1C101 340.1 95 340.3 89 340.1C86.1 340 85.4 341 85.5 343.8C85.7 349.5 85.5 355.3 85.7 361C85.8 363.2 85.1 364.7 83.5 366.2C77.4 372.4 70.9 378.2 65.2 384.9C43.9 384.8 22.2 384.8 0.5 384.8ZM113.3 288.1C113.3 283.5 113.5 278.8 113.2 274.2C113.1 271.3 113.9 270.3 116.9 270.3C125.8 270.4 134.6 270 143.5 270.1C146.6 270.1 148.8 269.3 151 267C164.6 253.1 178.6 239.5 192.1 225.5C194.9 222.6 196.8 222.4 200.2 224.3C221.4 236.3 244 240.8 268.2 237.8C328.4 230.2 371.2 170.7 359.3 110.8C345.2 39.5 268.4 1.8 204.1 35.4C168.8 53.9 149.4 84 146.2 124C144.5 145 149.5 164.6 159.5 183.1C162.7 189 162.6 189 157.8 193.8C113.6 238.1 69.4 282.3 25.2 326.6C23.8 328 22.6 329.3 22.6 331.7C22.8 340.8 22.7 349.9 22.6 359.1C22.6 361.5 23.2 362.3 25.7 362.2C34.7 362.1 43.7 362.2 52.6 362.1C56.9 362.1 63.2 355.9 63.2 351.5C63.2 341.4 63.2 331.3 63 321.1C62.9 318.4 63.5 317.5 66.4 317.5C76.6 317.6 86.8 317.3 97.1 317.3C99.4 317.3 100.9 316.3 102.7 315C111.3 308.8 114.8 300.6 113 290.2C113.1 289.6 113.3 288.9 113.3 288.1Z" fill="white"/>
<path d="M279.4 149.4C254.9 149.4 235.3 129.7 235.4 105.1C235.5 80.7 255 61.1 279.4 61C303.7 60.9 323.7 80.9 323.7 105.3C323.7 129.6 303.9 149.4 279.4 149.4ZM279.5 126.9C291.5 126.9 301.2 117.3 301.3 105.3C301.4 93.3 291.3 83.2 279.4 83.4C267.4 83.5 257.9 93.2 257.9 105.3C257.9 117.3 267.4 126.9 279.5 126.9Z" fill="white"/>
</svg>
