<?xml version="1.0" encoding="utf-8"?>
<!-- Generator: Adobe Illustrator 27.5.0, SVG Export Plug-In . SVG Version: 6.00 Build 0)  -->
<svg version="1.1" id="Layer_1" xmlns="http://www.w3.org/2000/svg" xmlns:xlink="http://www.w3.org/1999/xlink" x="0px" y="0px"
	 viewBox="0 0 512 512" style="enable-background:new 0 0 512 512;" xml:space="preserve">
<style type="text/css">
	.st0{fill:#FFFFFF;}
</style>
<path class="st0" d="M488.6,139.5c-14.4-7.2-31.4-5.7-44.3,4c-0.8,0.6-1.6,1.3-2.3,2l-37.5,37.8c-4.5-54.7-49.9-98-105.8-98h-192
	C47.9,85.3,0,133.2,0,192v128c0,58.8,47.9,106.7,106.7,106.7h192c56.1,0,101.7-43.7,105.9-98.7l37.5,37.4c0.7,0.7,1.5,1.3,2.3,2
	c7.5,5.6,16.4,8.5,25.3,8.5c6.5,0,12.9-1.5,19-4.5c14.4-7.2,23.4-21.7,23.4-37.8V177.4C512,161.2,503,146.7,488.6,139.5L488.6,139.5
	z M298.7,384h-192c-35.3,0-64-28.7-64-64V192c0-35.3,28.7-64,64-64h192c35.3,0,64,28.7,64,64v128C362.7,355.3,334,384,298.7,384z
	 M405.3,268.4V243l64-64.6l0.5,154.4L405.3,268.4L405.3,268.4z"/>
</svg>
